<?xml version="1.0" standalone="no"?><!-- Generator: Gravit.io --><svg xmlns="http://www.w3.org/2000/svg" xmlns:xlink="http://www.w3.org/1999/xlink" style="isolation:isolate" viewBox="0 0 160 160" width="160" height="160"><g><path d=" M 120.679 45.011 L 41.188 45.011 C 39.427 45.011 38 46.438 38 48.199 L 38 94.612 C 37.999 95.458 38.335 96.269 38.933 96.867 C 39.531 97.465 40.342 97.801 41.188 97.801 L 120.68 97.801 C 121.526 97.801 122.337 97.465 122.935 96.867 C 123.533 96.269 123.869 95.458 123.869 94.612 L 123.869 48.199 C 123.869 47.353 123.532 46.542 122.934 45.944 C 122.336 45.346 121.525 45.011 120.679 45.011 L 120.679 45.011 Z  M 46.25 78.236 L 46.024 78.236 C 44.263 78.235 42.836 76.808 42.835 75.047 L 42.835 67.764 C 42.835 66.918 43.171 66.107 43.769 65.509 C 44.367 64.911 45.178 64.576 46.024 64.576 L 46.25 64.576 L 46.25 78.236 Z  M 107.481 93.408 L 51.199 93.408 L 51.199 49.402 L 107.481 49.402 L 107.481 93.408 L 107.481 93.408 Z  M 116.258 75.552 C 113.969 75.552 112.112 73.697 112.112 71.405 C 112.112 69.113 113.968 67.258 116.258 67.258 C 118.548 67.258 120.405 69.115 120.405 71.405 C 120.405 73.695 118.548 75.552 116.258 75.552 Z  M 69.355 41 L 92.512 41 L 92.512 43.758 L 69.355 43.758 L 69.355 41 Z  M 84.466 105.861 L 84.466 102.888 L 92.512 102.888 L 92.512 100.13 L 69.356 100.13 L 69.356 102.888 L 77.401 102.888 L 77.401 138.134 C 75.193 139.101 73.766 141.282 73.766 143.693 L 73.766 158 L 88.101 158 L 88.101 143.693 C 88.102 141.283 86.674 139.101 84.465 138.136 L 84.465 110.146 L 89.261 110.146 L 94.312 111.359 L 94.312 104.648 L 89.261 105.861 L 84.466 105.861 L 84.466 105.861 Z " fill="rgb(54,54,54)"/></g></svg>