<?xml version="1.0" standalone="no"?><!-- Generator: Gravit.io --><svg xmlns="http://www.w3.org/2000/svg" xmlns:xlink="http://www.w3.org/1999/xlink" style="isolation:isolate" viewBox="0 0 160 160" width="160" height="160"><g><path d=" M 120.679 47.011 L 41.188 47.011 C 39.427 47.011 38 48.438 38 50.199 L 38 96.612 C 37.999 97.458 38.335 98.269 38.933 98.867 C 39.531 99.465 40.342 99.801 41.188 99.801 L 120.68 99.801 C 121.526 99.801 122.337 99.465 122.935 98.867 C 123.533 98.269 123.869 97.458 123.869 96.612 L 123.869 50.199 C 123.869 49.353 123.532 48.542 122.934 47.944 C 122.336 47.346 121.525 47.011 120.679 47.011 L 120.679 47.011 Z  M 46.25 80.236 L 46.024 80.236 C 44.263 80.235 42.836 78.808 42.835 77.047 L 42.835 69.764 C 42.835 68.918 43.171 68.107 43.769 67.509 C 44.367 66.911 45.178 66.576 46.024 66.576 L 46.25 66.576 L 46.25 80.236 Z  M 107.481 95.408 L 51.199 95.408 L 51.199 51.402 L 107.481 51.402 L 107.481 95.408 L 107.481 95.408 Z  M 116.258 77.552 C 113.969 77.552 112.112 75.697 112.112 73.405 C 112.112 71.113 113.968 69.258 116.258 69.258 C 118.548 69.258 120.405 71.115 120.405 73.405 C 120.405 75.695 118.548 77.552 116.258 77.552 Z  M 69.355 43 L 92.512 43 L 92.512 45.758 L 69.355 45.758 L 69.355 43 Z  M 84.466 107.861 L 84.466 104.888 L 92.512 104.888 L 92.512 102.13 L 69.356 102.13 L 69.356 104.888 L 77.401 104.888 L 77.401 140.134 C 75.193 141.101 73.766 143.282 73.766 145.693 L 73.766 160 L 88.101 160 L 88.101 145.693 C 88.102 143.283 86.674 141.101 84.465 140.136 L 84.465 112.146 L 89.261 112.146 L 94.312 113.359 L 94.312 106.648 L 89.261 107.861 L 84.466 107.861 L 84.466 107.861 Z " fill="rgb(54,54,54)"/></g></svg>