<?xml version="1.0" standalone="no"?><!-- Generator: Gravit.io --><svg xmlns="http://www.w3.org/2000/svg" xmlns:xlink="http://www.w3.org/1999/xlink" style="isolation:isolate" viewBox="0 0 160 160" width="160" height="160"><g><path d=" M 109.494 64.197 L 107.979 64.197 L 107.979 59.557 C 107.979 54.505 103.892 50.371 98.897 50.371 L 64.082 50.371 C 59.086 50.372 55 54.505 55 59.557 L 55 102.425 C 55 107.477 59.087 111.61 64.083 111.61 L 98.898 111.61 C 103.893 111.61 107.98 107.477 107.98 102.425 L 107.98 99.01 L 109.495 99.01 C 109.914 99.006 110.252 98.665 110.252 98.246 L 110.252 84.467 C 110.253 84.047 109.915 83.705 109.495 83.701 L 107.98 83.701 L 107.98 74.913 L 109.495 74.913 C 110.327 74.913 111.009 74.225 111.009 73.382 L 111.009 65.728 C 111.01 64.888 110.334 64.205 109.494 64.197 L 109.494 64.197 Z  M 89.082 61.088 C 92.008 61.088 94.381 63.486 94.381 66.446 C 94.381 69.406 92.008 71.804 89.082 71.804 C 86.156 71.804 83.784 69.406 83.784 66.446 C 83.784 63.486 86.156 61.088 89.082 61.088 Z  M 73.945 61.088 C 76.87 61.088 79.243 63.486 79.243 66.446 C 79.243 69.406 76.87 71.804 73.945 71.804 C 71.019 71.804 68.647 69.406 68.647 66.446 C 68.647 63.486 71.019 61.088 73.945 61.088 Z  M 60.297 81.397 C 60.297 78.438 62.668 76.039 65.595 76.039 C 68.521 76.039 70.893 78.438 70.893 81.397 C 70.893 84.356 68.52 86.755 65.595 86.755 C 62.668 86.756 60.297 84.356 60.297 81.397 Z  M 73.945 100.894 C 71.019 100.894 68.647 98.496 68.647 95.536 C 68.647 92.576 71.019 90.178 73.945 90.178 C 76.87 90.178 79.243 92.576 79.243 95.536 C 79.243 98.496 76.87 100.894 73.945 100.894 Z  M 75.435 80.991 C 75.435 77.609 78.146 74.867 81.49 74.867 C 84.834 74.867 87.545 77.609 87.545 80.991 C 87.545 84.373 84.834 87.115 81.49 87.115 C 78.146 87.114 75.435 84.373 75.435 80.991 Z  M 89.082 100.894 C 86.156 100.894 83.784 98.496 83.784 95.536 C 83.784 92.576 86.156 90.178 89.082 90.178 C 92.008 90.178 94.381 92.576 94.381 95.536 C 94.381 98.496 92.008 100.894 89.082 100.894 Z  M 97.384 86.756 C 94.457 86.756 92.086 84.357 92.086 81.398 C 92.086 78.439 94.457 76.04 97.384 76.04 C 100.31 76.04 102.682 78.439 102.682 81.398 C 102.682 84.356 100.31 86.756 97.384 86.756 Z  M 64.646 47.31 L 98.333 47.31 C 99.176 47.31 99.765 46.629 99.639 45.796 L 98.023 35.028 L 98.021 35.026 C 97.771 33.362 96.189 32 94.506 32 L 68.474 32 C 66.788 32 65.206 33.362 64.957 35.028 L 63.342 45.795 C 63.217 46.628 63.803 47.31 64.646 47.31 Z  M 98.333 114.671 L 64.646 114.671 C 63.803 114.671 63.217 115.354 63.342 116.187 L 64.957 126.954 C 65.207 128.62 66.789 129.982 68.473 129.982 L 94.505 129.982 C 96.189 129.982 97.771 128.62 98.022 126.956 L 98.022 126.954 L 99.637 116.187 C 99.765 115.354 99.176 114.671 98.333 114.671 L 98.333 114.671 Z " fill="rgb(54,54,54)"/></g></svg>