<?xml version="1.0" standalone="no"?><!-- Generator: Gravit.io --><svg xmlns="http://www.w3.org/2000/svg" xmlns:xlink="http://www.w3.org/1999/xlink" style="isolation:isolate" viewBox="0 0 160 160" width="160" height="160"><g><path d=" M 126.967 54.214 C 127.719 55.655 128.176 57.294 128.176 59.032 L 128.176 80.134 C 128.176 84.75 125.084 88.661 120.93 90.034 C 119.605 94.021 117.152 97.888 112.879 100.466 C 104.203 105.697 81.755 105.303 81.681 105.303 C 81.603 105.303 59.168 105.698 50.492 100.466 C 46.276 97.921 43.784 94.119 42.45 90.187 C 38.032 88.978 34.694 84.936 34.694 80.134 L 34.694 59.033 C 34.694 57.345 35.121 55.751 35.833 54.34 C 32.17 55.249 28 57.058 28 60.574 L 28 90.557 C 28 100.808 39.839 114.99 81.657 114.99 C 123.477 114.99 135.314 100.808 135.314 90.557 L 135.314 60.574 C 135.313 56.89 130.738 55.08 126.967 54.214 Z " fill="rgb(54,54,54)"/><path d=" M 48.561 88.599 L 114.084 88.599 C 119.648 88.599 124.158 84.086 124.158 78.522 L 124.158 60.075 C 124.158 54.512 119.648 50 114.084 50 L 48.561 50 C 42.997 50 38.486 54.511 38.486 60.075 L 38.486 78.522 C 38.486 84.086 42.997 88.599 48.561 88.599 Z  M 111.695 59.608 C 112.265 59.594 112.798 59.89 113.088 60.381 C 113.377 60.873 113.377 61.482 113.088 61.974 C 112.798 62.465 112.265 62.761 111.695 62.747 C 110.844 62.726 110.165 62.029 110.165 61.177 C 110.165 60.326 110.844 59.629 111.695 59.608 L 111.695 59.608 Z  M 111.695 63.647 C 112.562 63.647 113.264 64.349 113.264 65.216 C 113.264 66.083 112.562 66.785 111.695 66.785 C 110.828 66.785 110.126 66.083 110.126 65.216 C 110.126 64.349 110.828 63.647 111.695 63.647 Z  M 111.695 67.686 C 112.255 67.686 112.773 67.985 113.054 68.47 C 113.334 68.955 113.334 69.553 113.054 70.038 C 112.774 70.524 112.256 70.823 111.696 70.823 C 110.83 70.823 110.127 70.121 110.127 69.255 C 110.127 68.389 110.829 67.686 111.695 67.686 L 111.695 67.686 Z  M 111.695 71.513 C 112.562 71.513 113.265 72.216 113.265 73.084 C 113.264 73.951 112.561 74.653 111.694 74.653 C 110.827 74.653 110.124 73.95 110.124 73.083 C 110.125 72.215 110.828 71.513 111.695 71.513 Z  M 111.695 75.552 C 112.255 75.552 112.773 75.851 113.054 76.336 C 113.334 76.821 113.334 77.419 113.054 77.904 C 112.774 78.39 112.256 78.689 111.696 78.689 C 110.83 78.689 110.127 77.987 110.127 77.121 C 110.127 76.255 110.829 75.552 111.695 75.552 L 111.695 75.552 Z  M 107.656 59.608 C 108.523 59.608 109.224 60.311 109.224 61.178 C 109.224 61.738 108.925 62.256 108.44 62.536 C 107.955 62.816 107.357 62.816 106.872 62.536 C 106.387 62.256 106.088 61.738 106.088 61.178 C 106.088 60.31 106.791 59.608 107.656 59.608 Z  M 107.656 75.552 C 108.225 75.538 108.758 75.833 109.047 76.324 C 109.336 76.815 109.336 77.424 109.047 77.915 C 108.758 78.406 108.225 78.701 107.656 78.687 C 106.806 78.666 106.128 77.97 106.128 77.12 C 106.128 76.269 106.806 75.573 107.656 75.552 Z  M 103.619 59.608 C 104.18 59.609 104.698 59.908 104.978 60.394 C 105.258 60.88 105.257 61.479 104.976 61.964 C 104.695 62.45 104.177 62.749 103.616 62.748 C 102.749 62.747 102.047 62.044 102.048 61.176 C 102.048 60.309 102.752 59.607 103.619 59.608 L 103.619 59.608 Z  M 103.619 63.647 C 104.189 63.633 104.722 63.93 105.011 64.421 C 105.3 64.913 105.299 65.523 105.009 66.014 C 104.72 66.505 104.186 66.801 103.616 66.786 C 102.765 66.764 102.086 66.067 102.087 65.215 C 102.088 64.363 102.768 63.668 103.619 63.647 L 103.619 63.647 Z  M 103.619 67.686 C 104.486 67.687 105.188 68.389 105.187 69.256 C 105.186 70.123 104.484 70.825 103.617 70.824 C 102.75 70.823 102.048 70.121 102.049 69.254 C 102.05 68.387 102.752 67.685 103.619 67.686 Z  M 103.619 71.513 C 104.486 71.513 105.188 72.215 105.188 73.082 C 105.188 73.949 104.486 74.651 103.619 74.651 C 102.752 74.651 102.05 73.949 102.05 73.082 C 102.05 72.215 102.752 71.513 103.619 71.513 Z  M 103.619 75.552 C 104.486 75.553 105.188 76.255 105.187 77.122 C 105.186 77.989 104.484 78.691 103.617 78.69 C 102.75 78.689 102.048 77.987 102.049 77.12 C 102.05 76.253 102.752 75.551 103.619 75.552 Z  M 95.965 59.608 C 96.832 59.608 97.533 60.311 97.533 61.178 C 97.533 61.738 97.234 62.256 96.749 62.536 C 96.264 62.816 95.666 62.816 95.181 62.536 C 94.696 62.256 94.397 61.738 94.397 61.178 C 94.396 60.762 94.561 60.362 94.856 60.068 C 95.15 59.773 95.549 59.608 95.965 59.608 L 95.965 59.608 Z  M 95.965 67.686 C 96.831 67.686 97.533 68.388 97.533 69.254 C 97.533 70.12 96.832 70.822 95.966 70.822 C 95.1 70.822 94.398 70.121 94.397 69.255 C 94.397 68.839 94.562 68.44 94.856 68.146 C 95.15 67.851 95.549 67.686 95.965 67.686 L 95.965 67.686 Z  M 95.965 71.567 C 96.539 71.547 97.077 71.842 97.37 72.335 C 97.662 72.829 97.662 73.443 97.369 73.937 C 97.076 74.43 96.537 74.724 95.963 74.703 C 95.119 74.672 94.45 73.979 94.451 73.134 C 94.452 72.289 95.121 71.597 95.965 71.567 Z  M 95.965 75.552 C 96.534 75.538 97.067 75.833 97.356 76.324 C 97.645 76.815 97.645 77.424 97.356 77.915 C 97.067 78.406 96.534 78.701 95.965 78.687 C 95.115 78.666 94.437 77.97 94.437 77.12 C 94.437 76.269 95.115 75.573 95.965 75.552 Z  M 91.926 59.608 C 92.487 59.608 93.005 59.907 93.286 60.393 C 93.566 60.879 93.566 61.477 93.286 61.963 C 93.005 62.449 92.487 62.748 91.926 62.748 C 91.059 62.748 90.356 62.045 90.356 61.178 C 90.356 60.311 91.059 59.608 91.926 59.608 L 91.926 59.608 Z  M 91.926 67.686 C 92.496 67.671 93.029 67.967 93.319 68.459 C 93.608 68.95 93.609 69.56 93.319 70.051 C 93.03 70.543 92.497 70.839 91.927 70.825 C 91.076 70.804 90.396 70.108 90.396 69.256 C 90.396 68.404 91.075 67.708 91.926 67.686 Z  M 91.926 75.552 C 92.496 75.537 93.029 75.833 93.319 76.325 C 93.608 76.816 93.609 77.426 93.319 77.917 C 93.03 78.409 92.497 78.705 91.927 78.691 C 91.076 78.67 90.396 77.974 90.396 77.122 C 90.396 76.27 91.075 75.574 91.926 75.552 Z  M 87.888 59.608 C 88.739 59.629 89.418 60.326 89.418 61.178 C 89.418 62.029 88.739 62.726 87.888 62.747 C 87.472 62.747 87.073 62.582 86.779 62.287 C 86.485 61.993 86.32 61.594 86.32 61.178 C 86.319 60.762 86.484 60.362 86.778 60.068 C 87.072 59.773 87.472 59.608 87.888 59.608 L 87.888 59.608 Z  M 87.888 63.647 C 88.469 63.614 89.021 63.906 89.321 64.405 C 89.621 64.903 89.621 65.527 89.32 66.025 C 89.02 66.524 88.468 66.815 87.887 66.782 C 87.056 66.735 86.406 66.047 86.406 65.214 C 86.406 64.381 87.057 63.694 87.888 63.647 Z  M 87.888 67.686 C 88.755 67.686 89.458 68.389 89.458 69.257 C 89.457 70.124 88.754 70.826 87.887 70.826 C 87.02 70.826 86.317 70.123 86.318 69.256 C 86.318 68.388 87.021 67.686 87.888 67.686 Z  M 87.888 75.552 C 88.728 75.589 89.389 76.28 89.389 77.121 C 89.389 77.961 88.728 78.652 87.888 78.689 C 87.037 78.668 86.359 77.972 86.359 77.121 C 86.359 76.269 87.037 75.573 87.888 75.552 Z  M 79.598 59.608 C 80.168 59.594 80.701 59.89 80.991 60.381 C 81.28 60.873 81.28 61.482 80.991 61.974 C 80.701 62.465 80.168 62.761 79.598 62.747 C 78.747 62.726 78.068 62.029 78.068 61.177 C 78.068 60.326 78.747 59.629 79.598 59.608 Z  M 79.598 63.647 C 80.159 63.647 80.677 63.946 80.957 64.431 C 81.237 64.917 81.237 65.515 80.957 66.001 C 80.677 66.486 80.159 66.785 79.598 66.785 C 78.731 66.785 78.029 66.083 78.029 65.216 C 78.029 64.349 78.731 63.647 79.598 63.647 Z  M 79.598 67.686 C 80.158 67.686 80.676 67.985 80.957 68.47 C 81.237 68.955 81.237 69.553 80.957 70.038 C 80.677 70.524 80.159 70.823 79.599 70.823 C 78.733 70.823 78.03 70.121 78.03 69.255 C 78.03 68.389 78.732 67.686 79.598 67.686 L 79.598 67.686 Z  M 79.598 71.567 C 80.464 71.567 81.167 72.269 81.167 73.136 C 81.167 74.002 80.464 74.704 79.598 74.704 C 78.747 74.683 78.069 73.987 78.069 73.136 C 78.069 72.284 78.747 71.588 79.598 71.567 Z  M 79.598 75.552 C 80.158 75.552 80.676 75.851 80.957 76.336 C 81.237 76.821 81.237 77.419 80.957 77.904 C 80.677 78.39 80.159 78.689 79.599 78.689 C 78.733 78.689 78.03 77.987 78.03 77.121 C 78.03 76.255 78.732 75.552 79.598 75.552 L 79.598 75.552 Z  M 75.559 63.647 C 76.425 63.647 77.127 64.349 77.127 65.215 C 77.127 66.081 76.425 66.783 75.559 66.783 C 74.693 66.783 73.991 66.081 73.991 65.215 C 73.991 64.349 74.693 63.647 75.559 63.647 L 75.559 63.647 Z  M 67.057 63.435 C 67.638 63.402 68.19 63.694 68.49 64.193 C 68.79 64.691 68.79 65.315 68.489 65.813 C 68.189 66.312 67.637 66.603 67.056 66.57 C 66.225 66.523 65.575 65.835 65.575 65.002 C 65.575 64.169 66.226 63.482 67.057 63.435 Z  M 67.057 67.473 C 67.924 67.474 68.627 68.178 68.626 69.045 C 68.625 69.912 67.921 70.615 67.054 70.614 C 66.187 70.613 65.484 69.909 65.485 69.042 C 65.486 68.175 66.19 67.472 67.057 67.473 Z  M 63.018 59.395 C 63.579 59.396 64.097 59.695 64.377 60.181 C 64.657 60.667 64.656 61.266 64.375 61.751 C 64.094 62.237 63.576 62.536 63.015 62.535 C 62.148 62.534 61.446 61.831 61.447 60.963 C 61.447 60.096 62.151 59.394 63.018 59.395 L 63.018 59.395 Z  M 63.018 63.435 C 63.588 63.421 64.121 63.718 64.41 64.209 C 64.699 64.701 64.698 65.311 64.408 65.802 C 64.119 66.293 63.585 66.589 63.015 66.574 C 62.164 66.552 61.485 65.855 61.486 65.003 C 61.487 64.151 62.167 63.456 63.018 63.435 Z  M 63.018 67.473 C 63.579 67.474 64.097 67.773 64.377 68.259 C 64.657 68.745 64.656 69.344 64.375 69.829 C 64.094 70.315 63.576 70.614 63.015 70.613 C 62.148 70.612 61.446 69.909 61.447 69.041 C 61.447 68.174 62.151 67.472 63.018 67.473 L 63.018 67.473 Z  M 63.018 71.513 C 63.588 71.499 64.121 71.795 64.41 72.286 C 64.698 72.777 64.698 73.387 64.409 73.878 C 64.12 74.369 63.587 74.665 63.017 74.65 C 62.166 74.628 61.488 73.932 61.488 73.081 C 61.488 72.23 62.167 71.534 63.018 71.513 Z  M 58.764 63.435 C 59.325 63.435 59.843 63.734 60.123 64.219 C 60.403 64.705 60.403 65.303 60.123 65.788 C 59.843 66.274 59.325 66.573 58.764 66.573 C 57.897 66.573 57.195 65.871 57.195 65.004 C 57.195 64.137 57.897 63.435 58.764 63.435 Z  M 58.764 67.473 C 59.334 67.459 59.867 67.755 60.157 68.246 C 60.446 68.738 60.446 69.347 60.157 69.839 C 59.867 70.33 59.334 70.626 58.764 70.612 C 57.913 70.591 57.234 69.894 57.234 69.042 C 57.234 68.191 57.913 67.494 58.764 67.473 Z  M 58.764 71.513 C 59.631 71.513 60.334 72.216 60.333 73.084 C 60.333 73.951 59.63 74.653 58.763 74.653 C 57.896 74.653 57.193 73.95 57.193 73.083 C 57.194 72.215 57.897 71.513 58.764 71.513 Z  M 58.764 75.552 C 59.324 75.552 59.842 75.851 60.123 76.336 C 60.403 76.821 60.403 77.419 60.123 77.904 C 59.843 78.39 59.325 78.689 58.765 78.689 C 57.899 78.689 57.196 77.987 57.196 77.121 C 57.196 76.255 57.898 75.552 58.764 75.552 L 58.764 75.552 Z  M 54.3 63.435 C 55.167 63.434 55.87 64.136 55.871 65.003 C 55.871 65.87 55.168 66.573 54.301 66.573 C 53.434 66.573 52.731 65.87 52.731 65.003 C 52.732 64.137 53.434 63.436 54.3 63.435 L 54.3 63.435 Z  M 54.3 67.473 C 54.874 67.453 55.414 67.747 55.707 68.241 C 56 68.736 56 69.35 55.707 69.845 C 55.414 70.339 54.874 70.633 54.3 70.613 C 53.455 70.583 52.785 69.889 52.785 69.043 C 52.785 68.197 53.455 67.503 54.3 67.473 Z  M 50.263 63.435 C 50.844 63.402 51.396 63.694 51.696 64.193 C 51.996 64.691 51.996 65.315 51.695 65.813 C 51.395 66.312 50.843 66.603 50.262 66.57 C 49.431 66.523 48.781 65.835 48.781 65.002 C 48.781 64.169 49.432 63.482 50.263 63.435 Z  M 50.263 67.473 C 51.13 67.473 51.833 68.176 51.833 69.043 C 51.833 69.91 51.13 70.613 50.263 70.613 C 49.396 70.613 48.693 69.91 48.693 69.043 C 48.693 68.176 49.396 67.473 50.263 67.473 L 50.263 67.473 Z " fill="rgb(54,54,54)"/></g></svg>