<?xml version="1.0" standalone="no"?><!-- Generator: Gravit.io --><svg xmlns="http://www.w3.org/2000/svg" xmlns:xlink="http://www.w3.org/1999/xlink" style="isolation:isolate" viewBox="0 0 160 160" width="160" height="160"><g><path d=" M 102.349 39.49 C 102.349 38.754 101.771 38 101.038 38 L 58.053 38 C 57.32 38 56.672 38.754 56.672 39.49 L 56.672 43.012 L 102.348 43.012 L 102.348 39.49 L 102.349 39.49 Z  M 103.202 119.809 L 93.605 119.809 L 93.605 109.426 L 86.647 109.426 L 86.647 111.933 L 67.774 111.933 C 67.237 110.679 66.017 109.785 64.593 109.785 L 52.559 109.785 C 50.642 109.784 49 111.387 49 113.311 L 49 116.329 C 49 118.253 50.642 119.809 52.559 119.809 L 64.594 119.809 C 66.105 119.809 67.386 118.913 67.863 117.483 L 86.648 117.483 L 86.648 119.809 L 77.13 119.809 C 76.597 119.809 76.12 120.246 76.12 120.781 L 76.12 123.953 C 76.12 124.488 76.598 125.001 77.13 125.001 L 103.202 125.001 C 103.735 125.001 104.132 124.488 104.132 123.953 L 104.132 120.78 C 104.132 120.245 103.735 119.809 103.202 119.809 Z  M 109.666 50.39 C 108.783 47.389 106.024 45.331 102.895 45.34 L 56.148 45.34 C 52.25 45.34 49 48.449 49 52.361 L 49 99.261 C 49 103.173 52.25 106.382 56.148 106.382 L 102.895 106.382 C 106.793 106.382 110.021 103.173 110.021 99.261 L 110.021 88.915 C 116.305 84.562 120.045 77.396 120.022 69.751 C 120.021 61.672 115.89 54.57 109.666 50.39 Z  M 61.238 100.151 C 57.979 100.151 55.337 97.501 55.337 94.23 C 55.337 90.96 57.979 88.308 61.238 88.308 C 64.497 88.308 67.14 90.96 67.14 94.23 C 67.14 97.501 64.497 100.151 61.238 100.151 Z  M 67.199 67.546 C 67.2 67.923 67.05 68.284 66.785 68.551 C 66.519 68.817 66.158 68.967 65.781 68.968 L 56.841 68.968 C 56.464 68.967 56.103 68.817 55.837 68.551 C 55.572 68.284 55.422 67.923 55.423 67.546 L 55.423 53.386 C 55.422 53.009 55.571 52.648 55.837 52.381 C 56.103 52.114 56.464 51.964 56.841 51.963 L 65.78 51.963 C 66.157 51.964 66.518 52.114 66.784 52.381 C 67.05 52.648 67.199 53.009 67.198 53.386 L 67.198 67.546 L 67.199 67.546 Z  M 96.762 89.858 C 85.686 89.858 76.705 80.848 76.705 69.735 C 76.705 58.622 85.685 49.611 96.762 49.611 C 107.839 49.611 116.82 58.621 116.82 69.735 C 116.82 80.849 107.839 89.858 96.762 89.858 Z " fill="rgb(54,54,54)"/><ellipse vector-effect="non-scaling-stroke" cx="96.76200000000003" cy="69.735" rx="12.188000000000002" ry="12.229" fill="rgb(54,54,54)"/><circle vector-effect="non-scaling-stroke" cx="80.562" cy="69.736" r="1.4350000000000023" fill="rgb(54,54,54)"/><circle vector-effect="non-scaling-stroke" cx="112.96300000000002" cy="69.736" r="1.4350000000000023" fill="rgb(54,54,54)"/><circle vector-effect="non-scaling-stroke" cx="88.10900000000002" cy="55.99400000000001" r="1.4350000000000023" fill="rgb(54,54,54)"/><ellipse vector-effect="non-scaling-stroke" cx="105.41499999999999" cy="83.476" rx="1.4300000000000068" ry="1.436000000000007" fill="rgb(54,54,54)"/><circle vector-effect="non-scaling-stroke" cx="104.697" cy="55.565" r="1.4350000000000023" fill="rgb(54,54,54)"/><circle vector-effect="non-scaling-stroke" cx="88.82800000000002" cy="83.906" r="1.4350000000000023" fill="rgb(54,54,54)"/></g></svg>